<svg xmlns="http://www.w3.org/2000/svg" xmlns:xlink="http://www.w3.org/1999/xlink"><symbol id="icon-arrow-white" viewBox="0 0 33 16">
<path d="M32.7071 8.70711C33.0976 8.31658 33.0976 7.68342 32.7071 7.29289L26.3431 0.928932C25.9526 0.538408 25.3195 0.538408 24.9289 0.928932C24.5384 1.31946 24.5384 1.95262 24.9289 2.34315L30.5858 8L24.9289 13.6569C24.5384 14.0474 24.5384 14.6805 24.9289 15.0711C25.3195 15.4616 25.9526 15.4616 26.3431 15.0711L32.7071 8.70711ZM0 9H32V7H0V9Z" fill="#F5F2ED"/>
</symbol><symbol id="icon-arrow" viewBox="0 0 61 16">
<path d="M60.7071 8.70711C61.0976 8.31658 61.0976 7.68342 60.7071 7.29289L54.3432 0.928932C53.9526 0.538408 53.3195 0.538408 52.9289 0.928932C52.5384 1.31946 52.5384 1.95262 52.9289 2.34315L58.5858 8L52.9289 13.6569C52.5384 14.0474 52.5384 14.6805 52.9289 15.0711C53.3195 15.4616 53.9526 15.4616 54.3432 15.0711L60.7071 8.70711ZM0 9H60V7H0V9Z" fill="#533738"/>
</symbol></svg>